<mxfile host="65bd71144e">
    <diagram id="S-4TFGGRSXJsLNPsTNck" name="Page-1">
        <mxGraphModel dx="1261" dy="667" grid="1" gridSize="10" guides="1" tooltips="1" connect="1" arrows="1" fold="1" page="1" pageScale="1" pageWidth="827" pageHeight="1169" math="0" shadow="0">
            <root>
                <mxCell id="0"/>
                <mxCell id="1" parent="0"/>
                <mxCell id="49" value="" style="group" parent="1" vertex="1" connectable="0">
                    <mxGeometry x="40" y="10" width="660" height="390" as="geometry"/>
                </mxCell>
                <mxCell id="47" value="" style="rounded=0;whiteSpace=wrap;html=1;fontSize=14;" parent="49" vertex="1">
                    <mxGeometry x="-50" y="-10" width="710" height="400" as="geometry"/>
                </mxCell>
                <mxCell id="15" value="task&lt;br&gt;is &lt;br&gt;futures" style="shape=dataStorage;whiteSpace=wrap;html=1;fixedSize=1;fontSize=14;" parent="49" vertex="1">
                    <mxGeometry x="220" y="10" width="100" height="80" as="geometry"/>
                </mxCell>
                <mxCell id="21" value="" style="shape=crossbar;whiteSpace=wrap;html=1;rounded=1;direction=south;fontSize=14;" parent="49" vertex="1">
                    <mxGeometry x="70" y="100" width="20" height="220" as="geometry"/>
                </mxCell>
                <mxCell id="22" value="Executor" style="shape=ext;double=1;rounded=0;whiteSpace=wrap;html=1;fontSize=14;" parent="49" vertex="1">
                    <mxGeometry y="10" width="120" height="80" as="geometry"/>
                </mxCell>
                <mxCell id="26" value="channel" style="shape=ext;double=1;rounded=0;whiteSpace=wrap;html=1;" parent="49" vertex="1">
                    <mxGeometry x="470" width="120" height="80" as="geometry"/>
                </mxCell>
                <mxCell id="27" value="" style="shape=crossbar;whiteSpace=wrap;html=1;rounded=1;direction=south;fontSize=14;" parent="49" vertex="1">
                    <mxGeometry x="260" y="110" width="20" height="70" as="geometry"/>
                </mxCell>
                <mxCell id="16" value="" style="endArrow=classic;html=1;fontSize=14;exitX=0.177;exitY=0.59;exitDx=0;exitDy=0;exitPerimeter=0;fillColor=#99FF33;strokeColor=#2FF029;entryX=0.397;entryY=0.44;entryDx=0;entryDy=0;entryPerimeter=0;" parent="49" source="21" target="27" edge="1">
                    <mxGeometry width="50" height="50" relative="1" as="geometry">
                        <mxPoint x="90" y="170" as="sourcePoint"/>
                        <mxPoint x="270" y="150" as="targetPoint"/>
                    </mxGeometry>
                </mxCell>
                <mxCell id="28" value="" style="shape=crossbar;whiteSpace=wrap;html=1;rounded=1;direction=south;fontSize=14;" parent="49" vertex="1">
                    <mxGeometry x="510" y="90" width="60" height="270" as="geometry"/>
                </mxCell>
                <mxCell id="35" value="sending takes to run over a channel&amp;nbsp;" style="text;html=1;strokeColor=none;fillColor=none;align=center;verticalAlign=middle;whiteSpace=wrap;rounded=0;fontSize=14;" parent="49" vertex="1">
                    <mxGeometry x="130" y="150" width="90" height="30" as="geometry"/>
                </mxCell>
                <mxCell id="36" value="pull event off&amp;nbsp; of chanel and run them" style="text;html=1;strokeColor=none;fillColor=none;align=center;verticalAlign=middle;whiteSpace=wrap;rounded=0;fontSize=14;" parent="49" vertex="1">
                    <mxGeometry x="230" y="270" width="130" height="30" as="geometry"/>
                </mxCell>
                <mxCell id="39" value="" style="endArrow=classic;startArrow=classic;html=1;fontSize=14;strokeColor=#66FF66;fillColor=#99FF33;exitX=0.882;exitY=0.54;exitDx=0;exitDy=0;exitPerimeter=0;entryX=0.75;entryY=0.5;entryDx=0;entryDy=0;entryPerimeter=0;" parent="49" source="21" target="28" edge="1">
                    <mxGeometry width="50" height="50" relative="1" as="geometry">
                        <mxPoint x="350" y="260" as="sourcePoint"/>
                        <mxPoint x="400" y="210" as="targetPoint"/>
                        <Array as="points">
                            <mxPoint x="240" y="300"/>
                        </Array>
                    </mxGeometry>
                </mxCell>
                <mxCell id="33" style="edgeStyle=none;html=1;exitX=0.348;exitY=0.49;exitDx=0;exitDy=0;exitPerimeter=0;entryX=0.146;entryY=0.64;entryDx=0;entryDy=0;entryPerimeter=0;fontSize=14;strokeColor=#66FF66;fillColor=#99FF33;" parent="49" source="27" target="28" edge="1">
                    <mxGeometry relative="1" as="geometry"/>
                </mxCell>
                <mxCell id="40" value="" style="endArrow=classic;html=1;fontSize=14;strokeColor=#FF3399;fillColor=#99FF33;exitX=0.75;exitY=0.5;exitDx=0;exitDy=0;exitPerimeter=0;entryX=0.286;entryY=0.5;entryDx=0;entryDy=0;entryPerimeter=0;" parent="49" source="27" target="28" edge="1">
                    <mxGeometry width="50" height="50" relative="1" as="geometry">
                        <mxPoint x="350" y="220" as="sourcePoint"/>
                        <mxPoint x="400" y="170" as="targetPoint"/>
                    </mxGeometry>
                </mxCell>
                <mxCell id="41" value="when task awoken&lt;br&gt;polled again by putting itself back onto the channel" style="text;html=1;strokeColor=none;fillColor=none;align=center;verticalAlign=middle;whiteSpace=wrap;rounded=0;fontSize=14;" parent="49" vertex="1">
                    <mxGeometry x="370" y="180" width="140" height="30" as="geometry"/>
                </mxCell>
                <mxCell id="45" value="" style="whiteSpace=wrap;html=1;aspect=fixed;fontSize=14;" parent="49" vertex="1">
                    <mxGeometry x="370" y="200" width="80" height="80" as="geometry"/>
                </mxCell>
                <mxCell id="48" value="executor" style="text;html=1;strokeColor=none;fillColor=none;align=center;verticalAlign=middle;whiteSpace=wrap;rounded=0;fontSize=14;" parent="49" vertex="1">
                    <mxGeometry x="260" y="360" width="60" height="30" as="geometry"/>
                </mxCell>
                <mxCell id="51" value="Task" style="swimlane;" vertex="1" parent="1">
                    <mxGeometry x="30" y="480" width="200" height="150" as="geometry"/>
                </mxCell>
                <mxCell id="52" value="&lt;div style=&quot;color: rgb(171 , 178 , 191) ; background-color: rgb(35 , 39 , 46) ; font-family: &amp;#34;menlo&amp;#34; , &amp;#34;monaco&amp;#34; , &amp;#34;courier new&amp;#34; , monospace ; font-size: 18px ; line-height: 27px&quot;&gt;&lt;span style=&quot;color: #e06c75&quot;&gt;futrue&lt;/span&gt;&lt;/div&gt;" style="whiteSpace=wrap;html=1;" vertex="1" parent="51">
                    <mxGeometry x="20" y="40" width="120" height="30" as="geometry"/>
                </mxCell>
                <mxCell id="54" value="&lt;div style=&quot;color: rgb(171 , 178 , 191) ; background-color: rgb(35 , 39 , 46) ; font-family: &amp;#34;menlo&amp;#34; , &amp;#34;monaco&amp;#34; , &amp;#34;courier new&amp;#34; , monospace ; font-size: 18px ; line-height: 27px&quot;&gt;&lt;span style=&quot;color: #e06c75&quot;&gt;task_sender&lt;/span&gt;&lt;/div&gt;" style="whiteSpace=wrap;html=1;" vertex="1" parent="51">
                    <mxGeometry x="20" y="90" width="130" height="40" as="geometry"/>
                </mxCell>
                <mxCell id="55" value="Spawner" style="swimlane;" vertex="1" parent="1">
                    <mxGeometry x="70" y="850" width="200" height="90" as="geometry"/>
                </mxCell>
                <mxCell id="56" value="&lt;div style=&quot;color: rgb(171 , 178 , 191) ; background-color: rgb(35 , 39 , 46) ; font-family: &amp;#34;menlo&amp;#34; , &amp;#34;monaco&amp;#34; , &amp;#34;courier new&amp;#34; , monospace ; font-size: 18px ; line-height: 27px&quot;&gt;&lt;span style=&quot;color: #e06c75&quot;&gt;task_sender&lt;/span&gt;&lt;/div&gt;" style="whiteSpace=wrap;html=1;" vertex="1" parent="55">
                    <mxGeometry x="20" y="40" width="120" height="40" as="geometry"/>
                </mxCell>
                <mxCell id="57" value="Executor" style="swimlane;" vertex="1" parent="1">
                    <mxGeometry x="50" y="670" width="200" height="160" as="geometry"/>
                </mxCell>
                <mxCell id="58" value="&lt;div style=&quot;color: rgb(171 , 178 , 191) ; background-color: rgb(35 , 39 , 46) ; font-family: &amp;#34;menlo&amp;#34; , &amp;#34;monaco&amp;#34; , &amp;#34;courier new&amp;#34; , monospace ; font-size: 18px ; line-height: 27px&quot;&gt;&lt;span style=&quot;color: #e06c75&quot;&gt;ready_queue&lt;/span&gt;&lt;/div&gt;" style="whiteSpace=wrap;html=1;" vertex="1" parent="57">
                    <mxGeometry x="30" y="40" width="130" height="40" as="geometry"/>
                </mxCell>
                <mxCell id="60" value="&lt;div style=&quot;color: rgb(171 , 178 , 191) ; background-color: rgb(35 , 39 , 46) ; font-family: &amp;#34;menlo&amp;#34; , &amp;#34;monaco&amp;#34; , &amp;#34;courier new&amp;#34; , monospace ; font-size: 18px ; line-height: 27px&quot;&gt;&lt;div style=&quot;font-family: &amp;#34;menlo&amp;#34; , &amp;#34;monaco&amp;#34; , &amp;#34;courier new&amp;#34; , monospace ; line-height: 27px&quot;&gt;&lt;span style=&quot;color: #e5c07b&quot;&gt;Receiver&lt;/span&gt;&amp;lt;&lt;span style=&quot;color: #e5c07b&quot;&gt;Arc&lt;/span&gt;&amp;lt;&lt;span style=&quot;color: #e5c07b&quot;&gt;Task&lt;/span&gt;&amp;gt;&amp;gt;&lt;/div&gt;&lt;/div&gt;" style="text;html=1;strokeColor=none;fillColor=none;align=center;verticalAlign=middle;whiteSpace=wrap;rounded=0;" vertex="1" parent="57">
                    <mxGeometry x="90" y="100" width="40" height="30" as="geometry"/>
                </mxCell>
                <mxCell id="65" value="new_executor_and_spawner" style="swimlane;" vertex="1" parent="1">
                    <mxGeometry x="350" y="680" width="200" height="200" as="geometry"/>
                </mxCell>
                <mxCell id="66" value="&lt;div style=&quot;color: rgb(171 , 178 , 191) ; background-color: rgb(35 , 39 , 46) ; font-family: &amp;#34;menlo&amp;#34; , &amp;#34;monaco&amp;#34; , &amp;#34;courier new&amp;#34; , monospace ; font-size: 18px ; line-height: 27px&quot;&gt;&lt;span style=&quot;color: #e5c07b&quot;&gt;Executor&lt;/span&gt;&lt;/div&gt;" style="shape=process;whiteSpace=wrap;html=1;backgroundOutline=1;" vertex="1" parent="65">
                    <mxGeometry x="30" y="40" width="120" height="60" as="geometry"/>
                </mxCell>
                <mxCell id="67" value="&lt;div style=&quot;color: rgb(171 , 178 , 191) ; background-color: rgb(35 , 39 , 46) ; font-family: &amp;#34;menlo&amp;#34; , &amp;#34;monaco&amp;#34; , &amp;#34;courier new&amp;#34; , monospace ; font-size: 18px ; line-height: 27px&quot;&gt;&lt;span style=&quot;color: #e5c07b&quot;&gt;Spawner&lt;/span&gt;&lt;/div&gt;" style="shape=process;whiteSpace=wrap;html=1;backgroundOutline=1;" vertex="1" parent="65">
                    <mxGeometry x="30" y="120" width="120" height="60" as="geometry"/>
                </mxCell>
                <mxCell id="68" style="edgeStyle=none;html=1;exitX=0;exitY=0.5;exitDx=0;exitDy=0;entryX=1;entryY=0.5;entryDx=0;entryDy=0;" edge="1" parent="1" source="66" target="57">
                    <mxGeometry relative="1" as="geometry"/>
                </mxCell>
                <mxCell id="69" style="edgeStyle=none;html=1;exitX=0;exitY=0.5;exitDx=0;exitDy=0;entryX=1;entryY=0.5;entryDx=0;entryDy=0;" edge="1" parent="1" source="67" target="55">
                    <mxGeometry relative="1" as="geometry">
                        <mxPoint x="350" y="560" as="targetPoint"/>
                    </mxGeometry>
                </mxCell>
                <mxCell id="72" style="edgeStyle=none;html=1;" edge="1" parent="1" source="70">
                    <mxGeometry relative="1" as="geometry">
                        <mxPoint x="140" y="940" as="targetPoint"/>
                    </mxGeometry>
                </mxCell>
                <mxCell id="70" value="spawn" style="swimlane;" vertex="1" parent="1">
                    <mxGeometry x="120" y="980" width="200" height="160" as="geometry"/>
                </mxCell>
                <mxCell id="73" value="task_sender.send（task）" style="shape=process;whiteSpace=wrap;html=1;backgroundOutline=1;" vertex="1" parent="70">
                    <mxGeometry x="20" y="90" width="120" height="60" as="geometry"/>
                </mxCell>
                <mxCell id="74" value="task_sender.send（task）" style="shape=process;whiteSpace=wrap;html=1;backgroundOutline=1;" vertex="1" parent="1">
                    <mxGeometry x="140" y="930" width="120" height="60" as="geometry"/>
                </mxCell>
                <mxCell id="75" value="" style="edgeStyle=none;html=1;" edge="1" parent="1" source="73" target="74">
                    <mxGeometry relative="1" as="geometry"/>
                </mxCell>
            </root>
        </mxGraphModel>
    </diagram>
</mxfile>